<svg id="Layer_1" data-name="Layer 1" xmlns="http://www.w3.org/2000/svg" viewBox="0 0 25 25"><defs><style>.cls-1{fill:#fff;stroke-width:0.5px;}.cls-1,.cls-2{stroke:#1d1d1b;stroke-miterlimit:10;}.cls-2{fill:#1d1d1b;stroke-width:0.25px;}</style></defs><circle class="cls-1" cx="12.5" cy="12.5" r="11.5"/><circle class="cls-1" cx="12.5" cy="12.5" r="9.54"/><path class="cls-2" d="M15.15,16.83v.41H9.91V17a3.21,3.21,0,0,0,1.54-2.91,5.22,5.22,0,0,0-.14-1.13H9.85v-.38l1,0h.38a8.78,8.78,0,0,1-.49-2.36,2.22,2.22,0,0,1,2.38-2.41,2.48,2.48,0,0,1,2,1l-.32.29a2.16,2.16,0,0,0-1.75-.9,1.82,1.82,0,0,0-1.89,2,9.12,9.12,0,0,0,.51,2.39H14.1v.41H11.76a4.49,4.49,0,0,1,.13,1.13,3.4,3.4,0,0,1-1.11,2.71v0Z"/></svg>