<svg id="Layer_1" data-name="Layer 1" xmlns="http://www.w3.org/2000/svg" viewBox="0 0 25 25"><defs><style>.cls-1{fill:#fff;stroke-width:0.5px;}.cls-1,.cls-2{stroke:#1d1d1b;stroke-miterlimit:10;}.cls-2{fill:#1d1d1b;stroke-width:0.25px;}</style></defs><circle class="cls-1" cx="12.5" cy="12.5" r="11.5"/><circle class="cls-1" cx="12.5" cy="12.5" r="9.54"/><path class="cls-2" d="M12.81,17.33v1.42h-.44V17.31A4,4,0,0,1,10,16.19l.26-.32a3.46,3.46,0,0,0,2.38,1.05,1.8,1.8,0,0,0,2-1.89c0-3-4.25-2.15-4.25-5.15a2.17,2.17,0,0,1,2-2.19V6.25h.44V7.67a2.77,2.77,0,0,1,2,1L14.49,9a2.39,2.39,0,0,0-1.92-.9A1.72,1.72,0,0,0,10.8,9.85C10.8,12.56,15,11.6,15,15A2.27,2.27,0,0,1,12.81,17.33Z"/></svg>